<svg xmlns="http://www.w3.org/2000/svg" viewBox="0 0 200 200">
  <circle fill="none" stroke="#ff0000" stroke-miterlimit="10" stroke-dasharray="23.6837,23.6837" cx="100" cy="100" r="98">
    <animateTransform attributeName="transform" attributeType="XML" type="rotate" from="0 100 100" to="360 100 100" dur="10s" repeatCount="indefinite"/>
  </circle>
  <circle fill="#ff0000" cx="100" cy="100" r="89"/>
  <g id="Loading__Pages">
    <polygon fill="#FFFFFF" points="38.027 70.555 30.035 70.555 30.035 94.567 44.652 94.567 44.652 88.268 38.027 88.268 "/>
    <path fill="#FFFFFF" d="M57.971 95.179c1.728 0 3.359-0.33 4.896-0.99s2.874-1.56 4.015-2.7c1.139-1.14 2.039-2.478 2.699-4.014 0.66-1.536 0.99-3.168 0.99-4.896s-0.33-3.36-0.99-4.896c-0.66-1.536-1.561-2.874-2.699-4.014 -1.141-1.14-2.479-2.04-4.015-2.7 -1.536-0.66-3.168-0.99-4.896-0.99 -1.729 0-3.36 0.33-4.896 0.99 -1.536 0.661-2.874 1.561-4.014 2.7 -1.141 1.14-2.04 2.479-2.7 4.014 -0.66 1.536-0.99 3.168-0.99 4.896s0.33 3.36 0.99 4.896c0.66 1.536 1.56 2.874 2.7 4.014 1.14 1.14 2.478 2.041 4.014 2.7S56.243 95.179 57.971 95.179zM53.327 80.617c0.264-0.612 0.624-1.146 1.08-1.602s0.99-0.816 1.603-1.08c0.611-0.264 1.266-0.396 1.962-0.396 0.695 0 1.35 0.132 1.962 0.396 0.611 0.264 1.146 0.624 1.602 1.08s0.815 0.99 1.08 1.602c0.264 0.612 0.396 1.267 0.396 1.962 0 0.696-0.133 1.35-0.396 1.962 -0.265 0.612-0.624 1.146-1.08 1.602 -0.456 0.456-0.99 0.816-1.602 1.08 -0.612 0.265-1.267 0.396-1.962 0.396 -0.696 0-1.351-0.131-1.962-0.396 -0.612-0.264-1.146-0.624-1.603-1.08 -0.456-0.456-0.816-0.99-1.08-1.602 -0.264-0.612-0.396-1.266-0.396-1.962C52.931 81.884 53.063 81.229 53.327 80.617z"/>
    <path fill="#FFFFFF" d="M78.13 94.567l0.792-2.16h7.272l0.792 2.16h7.56l-9.107-24.012h-5.761l-9.107 24.012H78.13zM82.558 82.903l1.62 4.212h-3.239L82.558 82.903z"/>
    <path fill="#FFFFFF" d="M107.777 93.793c1.764-0.516 3.252-1.278 4.463-2.286 1.213-1.008 2.137-2.262 2.771-3.762 0.637-1.5 0.955-3.234 0.955-5.202 0-1.968-0.318-3.702-0.955-5.202 -0.635-1.5-1.559-2.754-2.771-3.762 -1.211-1.008-2.699-1.764-4.463-2.268 -1.766-0.504-3.775-0.756-6.031-0.756h-6.66v24.012h6.66C104.002 94.567 106.012 94.31 107.777 93.793zM102.754 77.396c1.801 0 3.191 0.42 4.176 1.26 0.984 0.84 1.477 2.137 1.477 3.888 0 1.752-0.492 3.054-1.477 3.906 -0.984 0.853-2.375 1.278-4.176 1.278V77.396z"/>
    <rect x="117.945" y="70.555" fill="#FFFFFF" width="8.137" height="24.012"/>
    <polygon fill="#FFFFFF" points="136.127 85.352 142.715 94.567 149.051 94.567 149.051 70.555 141.525 70.555 141.525 79.808 134.902 70.555 128.602 70.555 128.602 94.567 136.127 94.567 "/>
    <path fill="#FFFFFF" d="M165.43 80.635v5.04h2.16c-0.48 0.6-1.057 1.075-1.729 1.422 -0.672 0.349-1.416 0.522-2.232 0.522 -0.695 0-1.35-0.126-1.961-0.378 -0.613-0.252-1.146-0.6-1.604-1.044 -0.455-0.444-0.816-0.978-1.08-1.602 -0.264-0.624-0.395-1.296-0.395-2.016 0-0.72 0.119-1.392 0.359-2.016 0.24-0.624 0.57-1.158 0.99-1.602 0.42-0.444 0.918-0.792 1.494-1.044s1.211-0.378 1.908-0.378c0.623 0 1.26 0.102 1.908 0.306 0.646 0.205 1.188 0.499 1.619 0.882l4.355-6.192c-0.527-0.456-1.188-0.875-1.98-1.26 -0.672-0.336-1.5-0.636-2.482-0.9 -0.984-0.264-2.148-0.396-3.492-0.396 -1.729 0-3.344 0.33-4.842 0.99 -1.5 0.661-2.797 1.561-3.889 2.7 -1.092 1.14-1.949 2.479-2.574 4.014 -0.625 1.536-0.936 3.168-0.936 4.896 0 1.776 0.33 3.432 0.99 4.968 0.66 1.536 1.559 2.868 2.699 3.996 1.141 1.128 2.479 2.016 4.014 2.664 1.537 0.648 3.168 0.972 4.896 0.972 1.176 0 2.316-0.156 3.42-0.468s2.129-0.756 3.078-1.332c0.947-0.576 1.807-1.266 2.574-2.07s1.428-1.698 1.98-2.682v-7.992H165.43z"/>
    <path fill="#FFFFFF" d="M69.456 118.67c-0.576-1.164-1.362-2.106-2.358-2.826s-2.16-1.248-3.491-1.584c-1.332-0.336-2.767-0.504-4.303-0.504h-7.668v24.012h7.668v-5.724c1.536 0 2.971-0.168 4.303-0.504 1.331-0.336 2.495-0.864 3.491-1.584 0.996-0.721 1.782-1.662 2.358-2.826s0.864-2.574 0.864-4.23S70.032 119.834 69.456 118.67zM61.805 124.861c-0.444 0.468-1.17 0.702-2.178 0.702h-0.324v-5.328h0.324c1.008 0 1.733 0.234 2.178 0.702s0.666 1.122 0.666 1.962C62.471 123.74 62.25 124.394 61.805 124.861z"/>
    <path fill="#FFFFFF" d="M79.247 113.756l-9.107 24.012h7.56l0.792-2.16h7.272l0.792 2.16h7.56l-9.107-24.012H79.247zM80.507 130.315l1.619-4.212 1.62 4.212H80.507z"/>
    <path fill="#FFFFFF" d="M108.514 128.876h2.16c-0.48 0.6-1.057 1.074-1.729 1.422s-1.416 0.521-2.23 0.521c-0.697 0-1.352-0.126-1.963-0.378s-1.146-0.6-1.602-1.044c-0.457-0.443-0.816-0.978-1.08-1.602s-0.396-1.296-0.396-2.017c0-0.72 0.119-1.392 0.359-2.016s0.57-1.158 0.99-1.603c0.42-0.443 0.918-0.792 1.494-1.044s1.213-0.378 1.908-0.378c0.625 0 1.26 0.103 1.908 0.307s1.188 0.498 1.619 0.882l4.357-6.192c-0.529-0.455-1.189-0.876-1.98-1.26 -0.672-0.336-1.5-0.636-2.484-0.9 -0.984-0.264-2.148-0.396-3.492-0.396 -1.727 0-3.342 0.33-4.842 0.99 -1.5 0.66-2.795 1.56-3.887 2.699 -1.093 1.141-1.95 2.479-2.574 4.015 -0.625 1.536-0.937 3.168-0.937 4.896 0 1.776 0.33 3.433 0.99 4.969s1.56 2.868 2.7 3.995c1.14 1.129 2.478 2.017 4.014 2.664 1.535 0.648 3.168 0.973 4.896 0.973 1.176 0 2.314-0.156 3.42-0.469 1.104-0.312 2.129-0.756 3.078-1.332 0.947-0.575 1.805-1.266 2.572-2.069 0.77-0.804 1.428-1.698 1.98-2.683v-7.991h-9.252V128.876z"/>
    <polygon fill="#FFFFFF" points="127.414 128.695 133.785 128.695 133.785 122.72 127.414 122.72 127.414 120.056 133.895 120.056 133.895 113.756 119.746 113.756 119.746 137.768 134.146 137.768 134.146 131.468 127.414 131.468 "/>
    <path fill="#FFFFFF" d="M149.211 125.852c-0.467-0.648-0.984-1.224-1.547-1.728 -0.564-0.505-1.08-0.948-1.549-1.332s-0.863-0.721-1.188-1.009 -0.486-0.527-0.486-0.72c0-0.216 0.072-0.384 0.217-0.504 0.143-0.12 0.311-0.204 0.504-0.252 0.191-0.048 0.395-0.078 0.611-0.09s0.396-0.019 0.539-0.019c0.266 0 0.518 0.013 0.758 0.036 0.238 0.024 0.455 0.049 0.646 0.072 0.24 0.024 0.457 0.048 0.648 0.072v-6.732c-0.504-0.072-1.02-0.144-1.547-0.216 -0.457-0.048-0.973-0.102-1.549-0.162 -0.576-0.06-1.152-0.09-1.729-0.09 -1.104 0-2.143 0.15-3.113 0.45 -0.973 0.3-1.818 0.737-2.539 1.313 -0.719 0.576-1.283 1.296-1.691 2.16s-0.611 1.86-0.611 2.988c0 1.008 0.168 1.902 0.504 2.682 0.336 0.78 0.762 1.482 1.277 2.106s1.068 1.176 1.656 1.655c0.588 0.48 1.139 0.918 1.656 1.314 0.516 0.396 0.941 0.756 1.277 1.08s0.504 0.643 0.504 0.954c0 0.816-0.553 1.224-1.656 1.224 -0.623 0-1.242-0.036-1.854-0.107 -0.611-0.072-1.158-0.168-1.639-0.288 -0.574-0.096-1.127-0.229-1.654-0.396v7.2c0.576 0.168 1.211 0.312 1.906 0.432 0.6 0.12 1.291 0.222 2.07 0.307 0.779 0.083 1.627 0.126 2.539 0.126 1.512 0 2.82-0.198 3.924-0.595 1.104-0.396 2.01-0.936 2.717-1.619 0.709-0.685 1.23-1.488 1.566-2.412s0.504-1.914 0.504-2.971c0-1.008-0.162-1.92-0.486-2.735C150.076 127.232 149.68 126.5 149.211 125.852z"/>
    <animateTransform attributeName="transform" attributeType="XML" type="rotate" from="360 100 100" to="0 100 100" dur="10s" repeatCount="indefinite"/>
  </g>
</svg>
